<svg xmlns="http://www.w3.org/2000/svg" width="1600" height="520" viewBox="0 0 1600 520" role="img" aria-label="Karhabti monochrome logo">
  <rect width="1600" height="520" fill="transparent"/>
  <g transform="translate(80,70) scale(1.85)">
      <path d="M38 128 A72 72 0 0 1 126 38" fill="none" stroke="#1E1E1E" stroke-width="13" stroke-linecap="round"/>
      <path d="M52 102 A48 48 0 0 1 84 56" fill="none" stroke="#1E1E1E" stroke-width="7" stroke-linecap="butt"/>
      <path d="M63 78 L70 70" fill="none" stroke="#1E1E1E" stroke-width="7" stroke-linecap="butt"/>
      <path d="M86 55 L86 68" fill="none" stroke="#1E1E1E" stroke-width="7" stroke-linecap="butt"/>
      <path d="M98 43 A74 74 0 0 1 130 39" fill="none" stroke="#1E1E1E" stroke-width="7" stroke-linecap="butt"/>
      <path d="M91 72 L91 157 L111 157 L111 122 L150 157 L177 157 L126 110 L174 72 L148 72 L111 102 L111 72 Z" fill="#1E1E1E"/>
      <path d="M104 111 L176 48 L115 123 Z" fill="#1E1E1E"/>
      <circle cx="101" cy="113" r="12" fill="#FFFFFF" stroke="#1E1E1E" stroke-width="7"/>
  </g>
  <line x1="500" y1="95" x2="500" y2="425" stroke="#1E1E1E" stroke-width="5"/>
  <text x="1430" y="225" text-anchor="end" direction="rtl" font-family="IBM Plex Sans Arabic, Cairo, Tahoma, Arial, sans-serif" font-size="128" font-weight="700" fill="#1E1E1E">كرهبتي</text>
  <text x="958" y="335" text-anchor="middle" font-family="Inter, IBM Plex Sans, Arial, sans-serif" font-size="74" font-weight="500" letter-spacing="18" fill="#1E1E1E">Karhabti</text>
  <text x="1010" y="398" text-anchor="middle" direction="rtl" font-family="IBM Plex Sans Arabic, Cairo, Tahoma, Arial, sans-serif" font-size="38" font-weight="400" fill="#1E1E1E">لخدمات السيارات وقطع الغيار</text>
</svg>
